<?xml version="1.0" encoding="utf-8"?>
<!-- Generator: Adobe Illustrator 16.0.0, SVG Export Plug-In . SVG Version: 6.00 Build 0)  -->
<!DOCTYPE svg PUBLIC "-//W3C//DTD SVG 1.1//EN" "http://www.w3.org/Graphics/SVG/1.1/DTD/svg11.dtd">
<svg version="1.1" id="Layer_1" xmlns="http://www.w3.org/2000/svg" xmlns:xlink="http://www.w3.org/1999/xlink" x="0px" y="0px"
	 width="34.084px" height="25.583px" viewBox="0 0 34.084 25.583" enable-background="new 0 0 34.084 25.583" xml:space="preserve">
<g>
	<path fill-rule="evenodd" clip-rule="evenodd" fill="none" stroke="#FFFFFF" stroke-miterlimit="10" d="M14.959,2.792
		c1.165-1.31,2.721-2.18,4.503-1.672c0.729,0.207,1.375-0.101,2.05-0.202c0.79-0.118,1.568-0.17,2.346,0.014
		c0.89,0.211,1.76,0.303,2.677,0.08c1.075-0.261,2.028,0.182,2.868,0.807c1.976,1.474,2.897,3.585,3.426,5.903
		c0.271,1.19,0.348,2.41,0.067,3.605c-0.466,1.984-1.543,2.602-3.441,1.93c-0.675-0.24-1.054-0.102-1.546,0.371
		c-2.845,2.719-7.634,2.705-10.455-0.033c-0.478-0.465-0.831-0.586-1.474-0.352c-1.888,0.688-3.236-0.014-3.509-1.955
		C12.024,8.116,12.826,5.243,14.959,2.792"/>
	<path fill-rule="evenodd" clip-rule="evenodd" fill="#FFFFFF" d="M21.158,8.437c-0.054,0.484-0.313,0.789-0.799,0.818
		c-0.536,0.031-0.863-0.236-0.868-0.798c-0.005-0.495,0.266-0.832,0.746-0.851C20.752,7.587,21.044,7.938,21.158,8.437z"/>
</g>
<path fill-rule="evenodd" clip-rule="evenodd" fill="#FFFFFF" d="M12.938,14.442c-0.553-0.747-0.975-2.208-1.122-2.749
	c-0.438-1.636-0.432-2.632-0.869-4.54c-0.658-2.089-1.472-2.448-2.956-1.296C7.65,6.225,7.309,6.59,6.969,6.958
	C6.259,7.837,6.452,8.82,6.74,9.76c0.741,2.409,1.999,4.542,3.696,6.396c0.445,0.487,1.773,1.473,3.354,1.988
	c0.289,0.02,0.477-0.027,0.589-0.124C14.989,17.487,13.297,15.436,12.938,14.442z">
		
		<animateTransform 
		attributeName="transform" 
		dur="120ms"
		type="rotate"
		from="0 14.379 18.021"
		to="-20 14.379 18.021"
		repeatCount="indefinite" /> 
		 
		</path>
<path fill-rule="evenodd" clip-rule="evenodd" fill="#FFFFFF" d="M13.125,24.292c-1.102-1.59,0.583-7.041,1.458-8.083
	s4.343-0.721,5.593-0.304s4.25,0.208,5.5,0s1.332,0.917,1.791,1.667s1.764,5.917,1.549,6.792c-0.109,0.446-4.3,0.342-4.424-0.197
	c-0.384-1.667-0.718-0.655-0.718,0.083c0,0.584-5.539,0.319-5.827,0.208c-0.75-0.291,0.247-2.702-0.264-2.917
	s-0.852-0.282-1.242,0.376s0.56,1.924,0.125,2.458C16.295,24.832,13.5,24.833,13.125,24.292z"/>
<path fill-rule="evenodd" clip-rule="evenodd" fill="#FFFFFF" d="M22.626,2.087c-3.315,0.014-5.856,2.316-6.292,5.701
	c-0.357,2.773,1.8,5.688,4.756,6.451c0.731,0.188,1.636,0.451,3.275,0.09c1.869-0.412,4.688-3.199,4.668-6.118
	C29.009,4.742,26.217,2.073,22.626,2.087z M18.048,8.607c-0.015-1.157,0.758-2,1.851-2.018c1.048-0.018,1.934,0.871,1.95,1.956
	c0.017,1.059-0.879,2.028-1.897,2.053C18.915,10.624,18.063,9.731,18.048,8.607z M24.198,13.928
	c-0.573,0.197-1.745,0.182-2.417-0.03c-0.379-0.119-1.371-0.624-1.313-0.976c0.078-0.469,0.75,0.203,1.281,0.349
	c0.332,0.091,1.184,0.207,1.096-0.132c-0.096-0.373-0.469-0.492-0.742-0.722c-0.369-0.313-0.841-0.576-0.648-1.02
	c0.17-0.395,0.816-0.371,1.293-0.367c0.709,0.006,1.695-0.054,1.846,0.234c0.192,0.364,0.01,0.701-0.26,0.943l-0.605,0.438
	c0,0-0.375,0.24-0.428,0.525c-0.051,0.285,0.451,0.341,0.969,0.143c0.574-0.22,1.277-1.032,1.521-0.543
	C26.043,13.273,24.875,13.695,24.198,13.928z M25.701,9.536c-0.643,0.014-1.04-0.383-1.108-1.017
	c0.057-0.695,0.356-1.121,1.054-1.141c0.701-0.021,1.086,0.421,1.111,1.043C26.785,9.065,26.354,9.521,25.701,9.536z"/>
</svg>
